<?xml version="1.0" standalone="no"?><!DOCTYPE svg PUBLIC "-//W3C//DTD SVG 1.1//EN" "http://www.w3.org/Graphics/SVG/1.1/DTD/svg11.dtd"><svg t="1675474466490" class="icon" viewBox="0 0 1024 1024" version="1.1" xmlns="http://www.w3.org/2000/svg" p-id="2736" xmlns:xlink="http://www.w3.org/1999/xlink" width="200" height="200"><path d="M512 136.83c-206.88 0-375.17 168.31-375.17 375.17S305.12 887.17 512 887.17 887.17 718.86 887.17 512 718.88 136.83 512 136.83z m265.73 202h-85.94c-12.32-44.9-29.26-84.4-49.88-116.19a319.22 319.22 0 0 1 135.82 116.2zM656.3 512a625.41 625.41 0 0 1-10.54 115.44H378.24a637.45 637.45 0 0 1 0-230.88h267.52A625.41 625.41 0 0 1 656.3 512zM512 829.45c-44.2 0-91.56-54.92-119.52-144.29h239C603.56 774.53 556.2 829.45 512 829.45zM392.48 338.84c28-89.37 75.32-144.29 119.52-144.29s91.56 54.92 119.52 144.29z m-10.39-116.19c-20.62 31.79-37.56 71.29-49.88 116.19h-85.94a319.22 319.22 0 0 1 135.82-116.19z m-165.5 173.91h102.85a709.08 709.08 0 0 0 0 230.88H216.59a313.34 313.34 0 0 1 0-230.88z m29.68 288.6h85.94c12.32 44.9 29.26 84.4 49.88 116.19a319.22 319.22 0 0 1-135.82-116.19z m395.64 116.19c20.62-31.79 37.56-71.29 49.88-116.19h85.94a319.22 319.22 0 0 1-135.82 116.19z m165.5-173.91H704.56a709.08 709.08 0 0 0 0-230.88h102.85a313.34 313.34 0 0 1 0 230.88z" fill="#464646" p-id="2737"></path></svg>